<svg width="20" height="20" viewBox="0 0 20 20" fill="none" xmlns="http://www.w3.org/2000/svg">
<g clip-path="url(#clip0_2_51)">
<path fill-rule="evenodd" clip-rule="evenodd" d="M12.2555 12.2947C11.6588 12.8601 10.9503 13.3086 10.1705 13.6146C9.3908 13.9206 8.55508 14.078 7.7111 14.078C6.86712 14.078 6.0314 13.9206 5.25167 13.6146C4.47193 13.3086 3.76344 12.8601 3.16666 12.2947C2.56987 11.7294 2.09648 11.0582 1.7735 10.3195C1.45052 9.58077 1.28429 8.78904 1.28429 7.98948C1.28429 7.18992 1.45052 6.39818 1.7735 5.65948C2.09648 4.92079 2.56987 4.24959 3.16666 3.68421C4.37192 2.54239 6.00661 1.90091 7.7111 1.90091C9.4156 1.90091 11.0503 2.54239 12.2555 3.68421C13.4608 4.82604 14.1379 6.37469 14.1379 7.98948C14.1379 9.60426 13.4608 11.1529 12.2555 12.2947ZM12.5444 13.4737C11.0498 14.6596 9.12797 15.2504 7.18306 15.1218C5.23816 14.9932 3.42162 14.1553 2.1153 12.7842C0.808982 11.4131 0.11463 9.61555 0.178205 7.76951C0.24178 5.92347 1.05833 4.17268 2.45621 2.88516C3.85409 1.59764 5.72441 0.873679 7.67403 0.865465C9.62364 0.857251 11.5007 1.56542 12.9106 2.84111C14.3205 4.1168 15.1535 5.86065 15.2344 7.70608C15.3153 9.55151 14.6378 11.3548 13.3444 12.7368L19.3444 18.4211C19.4022 18.4686 19.449 18.527 19.4818 18.5925C19.5146 18.658 19.5328 18.7293 19.5352 18.8018C19.5376 18.8743 19.5242 18.9464 19.4958 19.0138C19.4673 19.0811 19.4245 19.1421 19.37 19.1931C19.3155 19.244 19.2504 19.2837 19.179 19.3096C19.1075 19.3356 19.0311 19.3473 18.9547 19.344C18.8782 19.3407 18.8033 19.3225 18.7346 19.2905C18.6659 19.2584 18.6049 19.2133 18.5555 19.1579L12.5444 13.4737Z" fill="black"/>
</g>
<defs>
<clipPath id="clip0_2_51">
<rect width="20" height="20" fill="white"/>
</clipPath>
</defs>
</svg>
