<svg width="10" height="6" viewBox="0 0 10 6" fill="none" xmlns="http://www.w3.org/2000/svg">
<g clip-path="url(#clip0_2_31)">
<path fill-rule="evenodd" clip-rule="evenodd" d="M9.35399 0.646001C9.30754 0.599438 9.25237 0.562495 9.19162 0.537289C9.13088 0.512082 9.06576 0.499107 8.99999 0.499107C8.93422 0.499107 8.8691 0.512082 8.80836 0.537289C8.74761 0.562495 8.69244 0.599438 8.64599 0.646001L4.99999 4.293L1.35399 0.646001C1.2601 0.552115 1.13277 0.49937 0.999991 0.49937C0.867215 0.49937 0.739877 0.552115 0.645991 0.646001C0.552104 0.739888 0.499359 0.867225 0.499359 1C0.499359 1.13278 0.552104 1.26011 0.645991 1.354L4.64599 5.354C4.69244 5.40056 4.74761 5.43751 4.80836 5.46271C4.8691 5.48792 4.93422 5.50089 4.99999 5.50089C5.06576 5.50089 5.13088 5.48792 5.19162 5.46271C5.25237 5.43751 5.30755 5.40056 5.35399 5.354L9.35399 1.354C9.40055 1.30756 9.4375 1.25238 9.4627 1.19163C9.48791 1.13089 9.50088 1.06577 9.50088 1C9.50088 0.934234 9.48791 0.869113 9.4627 0.808367C9.4375 0.747622 9.40055 0.692447 9.35399 0.646001Z" fill="black"/>
</g>
<defs>
<clipPath id="clip0_2_31">
<rect width="10" height="6" fill="white"/>
</clipPath>
</defs>
</svg>
